<svg xmlns="http://www.w3.org/2000/svg" viewBox="0 0 1440 320"><path fill="#0099ff" fill-opacity="1" d="M0,192L6.2,192C12.3,192,25,192,37,181.3C49.2,171,62,149,74,170.7C86.2,192,98,256,111,261.3C123.1,267,135,213,148,170.7C160,128,172,96,185,101.3C196.9,107,209,149,222,181.3C233.8,213,246,235,258,256C270.8,277,283,299,295,293.3C307.7,288,320,256,332,240C344.6,224,357,224,369,213.3C381.5,203,394,181,406,170.7C418.5,160,431,160,443,170.7C455.4,181,468,203,480,229.3C492.3,256,505,288,517,282.7C529.2,277,542,235,554,208C566.2,181,578,171,591,149.3C603.1,128,615,96,628,74.7C640,53,652,43,665,37.3C676.9,32,689,32,702,58.7C713.8,85,726,139,738,138.7C750.8,139,763,85,775,85.3C787.7,85,800,139,812,165.3C824.6,192,837,192,849,192C861.5,192,874,192,886,170.7C898.5,149,911,107,923,90.7C935.4,75,948,85,960,96C972.3,107,985,117,997,122.7C1009.2,128,1022,128,1034,112C1046.2,96,1058,64,1071,58.7C1083.1,53,1095,75,1108,85.3C1120,96,1132,96,1145,101.3C1156.9,107,1169,117,1182,122.7C1193.8,128,1206,128,1218,149.3C1230.8,171,1243,213,1255,229.3C1267.7,245,1280,235,1292,224C1304.6,213,1317,203,1329,213.3C1341.5,224,1354,256,1366,229.3C1378.5,203,1391,117,1403,85.3C1415.4,53,1428,75,1434,85.3L1440,96L1440,320L1433.8,320C1427.7,320,1415,320,1403,320C1390.8,320,1378,320,1366,320C1353.8,320,1342,320,1329,320C1316.9,320,1305,320,1292,320C1280,320,1268,320,1255,320C1243.1,320,1231,320,1218,320C1206.2,320,1194,320,1182,320C1169.2,320,1157,320,1145,320C1132.3,320,1120,320,1108,320C1095.4,320,1083,320,1071,320C1058.5,320,1046,320,1034,320C1021.5,320,1009,320,997,320C984.6,320,972,320,960,320C947.7,320,935,320,923,320C910.8,320,898,320,886,320C873.8,320,862,320,849,320C836.9,320,825,320,812,320C800,320,788,320,775,320C763.1,320,751,320,738,320C726.2,320,714,320,702,320C689.2,320,677,320,665,320C652.3,320,640,320,628,320C615.4,320,603,320,591,320C578.5,320,566,320,554,320C541.5,320,529,320,517,320C504.6,320,492,320,480,320C467.7,320,455,320,443,320C430.8,320,418,320,406,320C393.8,320,382,320,369,320C356.9,320,345,320,332,320C320,320,308,320,295,320C283.1,320,271,320,258,320C246.2,320,234,320,222,320C209.2,320,197,320,185,320C172.3,320,160,320,148,320C135.4,320,123,320,111,320C98.5,320,86,320,74,320C61.5,320,49,320,37,320C24.6,320,12,320,6,320L0,320Z"></path></svg>